<svg id="Main-Page" xmlns="http://www.w3.org/2000/svg" width="71.607" height="206.859" viewBox="0 0 71.607 206.859">
  <g id="Design-Details-page---Get-your-size---Fit" transform="translate(-561 -412)">
    <g id="Group-44" transform="translate(373 120)">
      <g id="design-it-yourself-or-browse-ready-cool-design" transform="translate(188 292)">
        <path id="Path" d="M41.01,6.757s9.974,16.036-3.929,26.324H21.364L30.028,7.06Z" fill="#fff"/>
        <path id="Path-2" data-name="Path" d="M33.756,25.214h0A6.114,6.114,0,0,0,40.1,19.768l.907-11.6-13.7.4V19.365C27.308,22.592,30.23,25.214,33.756,25.214Z" fill="#ffc879"/>
        <rect id="Rectangle" width="9.672" height="19.365" transform="translate(25.394 15.935)" fill="#ffc879"/>
        <path id="Path-3" data-name="Path" d="M35.066,25.013a13.9,13.9,0,0,1-1.411.1A6.831,6.831,0,0,1,29.323,23.6a6.446,6.446,0,0,0,5.34,2.622h.4Z" fill="#555"/>
        <rect id="Rectangle-2" data-name="Rectangle" width="16.019" height="6.354" transform="translate(19.047 28.946)" fill="#c4c4c4"/>
        <path id="Path-4" data-name="Path" d="M25.495,64.346l2.317,10.187a8.635,8.635,0,0,1,2.317-.2c1.612-2.118.5-6.051.2-9.481C28.316,64.548,25.495,64.346,25.495,64.346Z" fill="#ffc879"/>
        <path id="Path-5" data-name="Path" d="M30.431,32.678s17.631-1.614,24.281,6.152,7.959,21.886,9.068,28.442-26.7,4.034-26.7,4.034Z" fill="#606060"/>
        <g id="Group-39" transform="translate(9 194)">
          <path id="Path-6" data-name="Path" d="M44.018-3h0a7.055,7.055,0,0,0-2.31-3.8L38.243-9.9A1.689,1.689,0,0,1,39.4-12.859H50.515a1.727,1.727,0,0,1,1.733,1.268l1.444,4.366A6.088,6.088,0,0,1,53.547-3H44.018Z" transform="translate(91.676) rotate(180)" fill="#1c1c1c"/>
          <path id="Path-7" data-name="Path" d="M13.844-2.859v1c-1.155-2.535-3.321-5.366-5.919-6.07L.994-9.9a1.469,1.469,0,0,1-.866-.7,1.5,1.5,0,0,1,1.3-2.113h18.48a2.5,2.5,0,0,1,2.454,2.394V0C22.362-.141,13.844-3.141,13.844-2.859Z" transform="translate(22.362) rotate(180)" fill="#1c1c1c"/>
        </g>
        <path id="Path-8" data-name="Path" d="M47.66,65.456A33.914,33.914,0,0,0,52.4,62.733c2.72-1.916,5.34-4.135,8.161-4.135,1.209,0,2.015,1.311,2.922,2.32.4.4,1.209.5,1.41.908.6.807.1,1.815,0,2.521a4.082,4.082,0,0,1-1.007,2.925,72.148,72.148,0,0,1-7.758-.3A29.341,29.341,0,0,1,47.66,65.456Z" fill="#ffc879"/>
        <path id="Path-9" data-name="Path" d="M10.028,64.346S-1.531,186.857.171,194.144c1.456,6.234,56.533,3.69,67.527,3.69h0a3.91,3.91,0,0,0,3.882-4.37Q63.089,121.933,58.732,79.406l-20.14-3.965Z" fill="#606060"/>
        <path id="Path-10" data-name="Path" d="M58.621,76.965q-30.548,2.138-42.377.923-2.221-.228-6.366-10.155l-.753,6.8c7.119,18.884,23.523,12.708,28.964,9.279.4-.3.806-.5,1.209-.807,4.634,1.916,15.058,3.441,19.994,4.248C59.292,87.253,58.621,80.652,58.621,76.965Z" fill="#555"/>
        <path id="Path-11" data-name="Path" d="M11.994,71.709s-2.116,4.337,2.821,5.951C19.853,79.374,11.994,71.709,11.994,71.709Z" fill="#ffc879"/>
        <path id="Shape" d="M63.78,67.271c-1.41-.605-3.224.605-3.224.605s-2.116,1.009-10.881-1.815a49.861,49.861,0,0,0-13.3-1.815L33.454,32.375l-8.362.4S7.158,33.384,3.833,43.772C.811,53.252,8.669,68.482,19.45,82.3a7.22,7.22,0,0,0,8.261,2.421c3.829-1.311,8.967-3.631,12.09-7.362,2.619,1.412,18.236,7.06,22.064,4.034C65.9,78.366,63.78,67.271,63.78,67.271ZM27.812,74.533,25.495,64.346s1.41.2,3.425.4a9.631,9.631,0,0,1,1.511,4.034c.2,1.715.4,3.933-.2,5.345A6.09,6.09,0,0,0,27.812,74.533Z" fill="#606060"/>
        <path id="Path-12" data-name="Path" d="M35.066,32.476s-3.224,2.521-13.1,0l2.015-3.833H35.066Z" fill="#606060"/>
        <path id="Path-13" data-name="Path" d="M41.111,7.564l-.806.1A8.821,8.821,0,0,0,31.54,0H29.222a8.8,8.8,0,0,0-8.765,8.169h0l-1.713,9.178a53.377,53.377,0,0,1-7.355,18.86c19.646-1.311,19.949-23.6,19.949-27.13l3.325.807a13.007,13.007,0,0,0,4.433.2l.705-.1A1.8,1.8,0,0,0,41.111,7.564Z" fill="#fff"/>
        <circle id="Oval" cx="1" cy="1" r="1" transform="translate(29.834 28.954)" fill="#fff"/>
        <circle id="Oval-2" data-name="Oval" cx="1" cy="1" r="1" transform="translate(29.834 30.972)" fill="#fff"/>
        <path id="Path-14" data-name="Path" d="M37.484,17.045l.5-.4a.642.642,0,0,1,.6,0l1.209.908a1.242,1.242,0,0,1,.5,1.008c-.1.605-.2,1.311-.2,1.311l-.2-.3a2.046,2.046,0,0,0-2.015-1.009h0l-.4.1V17.045Z" fill="#363636"/>
        <path id="Path-15" data-name="Path" d="M37.686,17.045l-.6-.4a.62.62,0,0,0-.705-.1L34.159,17.65a1.949,1.949,0,0,0-.907,1.21l-.3,1.009,2.116-1.009a3.421,3.421,0,0,1,2.015-.3l.5.1Z" fill="#363636"/>
        <path id="Path-16" data-name="Path" d="M35.268,19.163a13.54,13.54,0,0,1,2.216,0c.6,0,1.209.1,1.813.1,0,0-.2.807-1.813.908A2.542,2.542,0,0,1,35.268,19.163Z" fill="#ff9191"/>
        <path id="Path-17" data-name="Path" d="M38.089,21.785H36.577a.217.217,0,0,1-.2-.2l.1-.605c0-.2.2-.3.4-.3h.806c.2,0,.3.1.4.3l.1.605C38.29,21.684,38.189,21.785,38.089,21.785Z" fill="#363636"/>
        <path id="Path-18" data-name="Path" d="M30.633,16.843l.3.3a3.552,3.552,0,0,1,1.41,2.219c.2,1.21,1.108,2.824,4.635,3.126a3.136,3.136,0,0,0,2.821-1.21L39.2,23.4a2.811,2.811,0,0,1-2.72,2.017c-2.418.1-6.146-.2-7.556-2.521Z" fill="#363636"/>
        <path id="Path-19" data-name="Path" d="M41.01,4.841a5.152,5.152,0,0,0-2.216-1.109A15.255,15.255,0,0,1,39.7,5.345c-1.31,1.21-5.138,1.311-9.471-.706a15.513,15.513,0,0,1-4.937-3.53L26.1.5a3.946,3.946,0,0,0-2.418.1h0a1.085,1.085,0,0,0-.2,1.715,18.4,18.4,0,0,0,5.844,4.135A17.44,17.44,0,0,0,36.577,8.27a7.835,7.835,0,0,0,4.131-1.109,1.636,1.636,0,0,0,.3-2.32Z" fill="#101010"/>
      </g>
    </g>
  </g>
</svg>
