<svg id="Main-Page" xmlns="http://www.w3.org/2000/svg" width="62" height="207" viewBox="0 0 62 207">
  <g id="Design-Details-page---Get-your-size---Fit" transform="translate(-805 -412)">
    <g id="Group-44" transform="translate(373 120)">
      <g id="design-it-yourself-or-browse-ready-cool-design" transform="translate(432 292)">
        <path id="Path" d="M37.83,6.757S47.8,22.794,33.9,33.081H18.183L26.848,7.06Z" fill="#fff"/>
        <path id="Path-2" data-name="Path" d="M30.576,25.214h0a6.114,6.114,0,0,0,6.347-5.446l.907-11.6-13.7.4V19.365C24.128,22.592,27.049,25.214,30.576,25.214Z" fill="#ffc879"/>
        <rect id="Rectangle" width="9.672" height="19.365" transform="translate(22.213 15.935)" fill="#ffc879"/>
        <path id="Path-3" data-name="Path" d="M31.885,25.013a13.9,13.9,0,0,1-1.411.1A6.831,6.831,0,0,1,26.143,23.6a6.446,6.446,0,0,0,5.34,2.622h.4Z" fill="#929292"/>
        <rect id="Rectangle-2" data-name="Rectangle" width="16.019" height="6.354" transform="translate(15.866 28.946)" fill="#c4c4c4"/>
        <path id="Path-4" data-name="Path" d="M22.314,64.346l2.317,10.187a8.635,8.635,0,0,1,2.317-.2c1.612-2.118.5-6.051.2-9.481C25.135,64.548,22.314,64.346,22.314,64.346Z" fill="#ffc879"/>
        <g id="Group-39" transform="translate(8 194.141)">
          <path id="Path-5" data-name="Path" d="M44.018-3h0a7.055,7.055,0,0,0-2.31-3.8L38.243-9.9A1.689,1.689,0,0,1,39.4-12.859H50.515a1.727,1.727,0,0,1,1.733,1.268l1.444,4.366A6.088,6.088,0,0,1,53.547-3H44.018Z" transform="translate(91.676) rotate(180)" fill="#1c1c1c"/>
          <path id="Path-6" data-name="Path" d="M13.844-2.859v1c-1.155-2.535-3.321-5.366-5.919-6.07L.994-9.9a1.469,1.469,0,0,1-.866-.7,1.5,1.5,0,0,1,1.3-2.113h18.48a2.5,2.5,0,0,1,2.454,2.394V0C22.362-.141,13.844-3.141,13.844-2.859Z" transform="translate(22.362) rotate(180)" fill="#1c1c1c"/>
        </g>
        <path id="Path-7" data-name="Path" d="M27.251,32.678s17.631-1.614,24.281,6.152S59.491,60.716,60.6,67.271s-26.7,4.034-26.7,4.034Z" fill="#606060"/>
        <path id="Path-8" data-name="Path" d="M44.479,65.456a33.914,33.914,0,0,0,4.735-2.723c2.72-1.916,5.34-4.135,8.161-4.135,1.209,0,2.015,1.311,2.922,2.32.4.4,1.209.5,1.41.908.6.807.1,1.815,0,2.521A4.082,4.082,0,0,1,60.7,67.271a72.149,72.149,0,0,1-7.758-.3A29.341,29.341,0,0,1,44.479,65.456Z" fill="#ffc879"/>
        <path id="Path-9" data-name="Path" d="M9.4,74.533S1.852,186.454,3.554,193.741c1.456,6.234,41.043,5.906,52,4.176a23.394,23.394,0,0,1,3.168-.6c.979,0,1.074-.743,1.074-.743S53.417,85.325,53.921,80.484L35.412,75.441Z" fill="#606060"/>
        <path id="Path-10" data-name="Path" d="M8.814,71.709S6.7,76.046,11.635,77.66C16.672,79.374,8.814,71.709,8.814,71.709Z" fill="#ffc879"/>
        <path id="Path-11" data-name="Path" d="M53.827,77.66q-28.934,1.443-40.764.228A5.976,5.976,0,0,1,9.49,76.4L9.13,79.4c6.545,13.905,20.337,7.846,25.778,4.417.4-.3.806-.5,1.209-.807,4.634,1.916,12.948,3.28,17.885,4.087C54,87.092,53.827,81.346,53.827,77.66Z" fill="#555"/>
        <path id="Shape" d="M60.6,67.271c-1.41-.605-3.224.605-3.224.605s-2.116,1.009-10.881-1.815a49.862,49.862,0,0,0-13.3-1.815L30.273,32.375l-8.362.4S3.978,33.384.653,43.772C-2.37,53.252,5.489,68.482,16.269,82.3a7.22,7.22,0,0,0,8.261,2.421c3.829-1.311,8.967-3.631,12.09-7.362,2.619,1.412,18.236,7.06,22.064,4.034C62.715,78.366,60.6,67.271,60.6,67.271ZM24.631,74.533,22.314,64.346s1.41.2,3.426.4a9.631,9.631,0,0,1,1.511,4.034c.2,1.715.4,3.933-.2,5.345A6.091,6.091,0,0,0,24.631,74.533Z" fill="#606060"/>
        <path id="Path-12" data-name="Path" d="M31.885,32.476s-3.224,2.521-13.1,0L20.8,28.643H31.885Z" fill="#606060"/>
        <path id="Path-13" data-name="Path" d="M37.93,7.564l-.806.1A8.821,8.821,0,0,0,28.359,0H26.042a8.8,8.8,0,0,0-8.765,8.169h0l-1.713,9.178a53.377,53.377,0,0,1-7.355,18.86c19.646-1.311,19.949-23.6,19.949-27.13l3.325.807a13.007,13.007,0,0,0,4.433.2l.705-.1A1.8,1.8,0,0,0,37.93,7.564Z" fill="#fff"/>
        <circle id="Oval" cx="1" cy="1" r="1" transform="translate(26.654 28.954)" fill="#fff"/>
        <circle id="Oval-2" data-name="Oval" cx="1" cy="1" r="1" transform="translate(26.654 30.972)" fill="#fff"/>
        <path id="Path-14" data-name="Path" d="M34.3,17.045l.5-.4a.642.642,0,0,1,.6,0l1.209.908a1.242,1.242,0,0,1,.5,1.008c-.1.605-.2,1.311-.2,1.311l-.2-.3a2.046,2.046,0,0,0-2.015-1.009h0l-.4.1V17.045Z" fill="#1c1c1c"/>
        <path id="Path-15" data-name="Path" d="M34.5,17.045l-.6-.4a.62.62,0,0,0-.705-.1L30.979,17.65a1.949,1.949,0,0,0-.907,1.21l-.3,1.009,2.116-1.009a3.421,3.421,0,0,1,2.015-.3l.5.1Z" fill="#1c1c1c"/>
        <path id="Path-16" data-name="Path" d="M32.087,19.163a13.54,13.54,0,0,1,2.216,0c.6,0,1.209.1,1.814.1,0,0-.2.807-1.814.908A2.542,2.542,0,0,1,32.087,19.163Z" fill="#ff9191"/>
        <path id="Path-17" data-name="Path" d="M34.908,21.785H33.4a.217.217,0,0,1-.2-.2l.1-.605c0-.2.2-.3.4-.3H34.5c.2,0,.3.1.4.3l.1.605C35.109,21.684,35.009,21.785,34.908,21.785Z" fill="#1c1c1c"/>
        <path id="Path-18" data-name="Path" d="M27.452,16.843l.3.3a3.552,3.552,0,0,1,1.41,2.219c.2,1.21,1.108,2.824,4.635,3.126a3.136,3.136,0,0,0,2.821-1.21l-.6,2.118a2.812,2.812,0,0,1-2.72,2.017c-2.418.1-6.146-.2-7.556-2.521Z" fill="#1c1c1c"/>
        <path id="Path-19" data-name="Path" d="M37.83,4.841a5.152,5.152,0,0,0-2.216-1.109,15.259,15.259,0,0,1,.907,1.614c-1.31,1.21-5.138,1.311-9.471-.706a15.514,15.514,0,0,1-4.937-3.53L22.919.5a3.946,3.946,0,0,0-2.418.1h0a1.085,1.085,0,0,0-.2,1.715,18.4,18.4,0,0,0,5.844,4.135A17.44,17.44,0,0,0,33.4,8.27a7.835,7.835,0,0,0,4.131-1.109,1.636,1.636,0,0,0,.3-2.32Z" fill="#101010"/>
      </g>
    </g>
  </g>
</svg>
